<svg width="100" height="100" viewBox="0 0 600 600" fill="none" xmlns="http://www.w3.org/2000/svg">
<rect width="100" height="100" fill="white" fill-opacity="0.23"/>
<path d="M289.835 520.904C294.999 526.644 304 526.644 309.165 520.904L373.846 449.003C381.372 440.637 375.434 427.309 364.181 427.309H234.819C223.565 427.309 217.628 440.637 225.154 449.003L289.835 520.904Z" fill="#CDCDCD"/>
<ellipse cx="300.309" cy="432.971" rx="50.9559" ry="29.1176" fill="black" fill-opacity="0.34"/>
<path fill-rule="evenodd" clip-rule="evenodd" d="M299.5 442.676C375.439 442.676 437 381.116 437 305.176C437 229.237 375.439 167.676 299.5 167.676C223.561 167.676 162 229.237 162 305.176C162 381.116 223.561 442.676 299.5 442.676ZM299.407 375.548C338.324 375.548 369.872 344 369.872 305.083C369.872 266.166 338.324 234.618 299.407 234.618C260.49 234.618 228.942 266.166 228.942 305.083C228.942 344 260.49 375.548 299.407 375.548Z" fill="#CDCDCD"/>
<path fill-rule="evenodd" clip-rule="evenodd" d="M335.088 85.5068C330.194 82.8069 324.829 81.3171 319.203 81.3171C296.241 81.3171 277.628 106.133 277.628 136.745C277.628 151.913 282.197 165.657 289.602 175.665C274.521 167.346 263.912 147.539 263.912 124.428C263.912 93.8158 282.525 69 305.487 69C317.071 69 327.549 75.3164 335.088 85.5068Z" fill="black"/>
<path fill-rule="evenodd" clip-rule="evenodd" d="M357.643 153.885C356.47 151.141 354.717 148.676 352.383 146.666C342.858 138.468 327.259 140.973 317.543 152.261C312.729 157.854 310.262 164.554 310.157 170.888C306.542 162.436 308.428 151.344 315.763 142.822C325.48 131.534 341.078 129.029 350.603 137.227C355.409 141.364 357.751 147.435 357.643 153.885Z" fill="black"/>
</svg>
